<?xml version="1.0" encoding="UTF-8"?>
<svg id="Layer_1" xmlns="http://www.w3.org/2000/svg" version="1.1" viewBox="0 0 595.3 841.9">
  <!-- Generator: Adobe Illustrator 29.1.0, SVG Export Plug-In . SVG Version: 2.1.0 Build 142)  -->
  <defs>
    <style>
      .st0 {
        fill: #044347;
      }

      .st1 {
        fill: #034d5b;
      }

      .st2 {
        fill: #133431;
      }

      .st3 {
        fill: #044951;
      }

      .st4 {
        fill: #033b3d;
      }
    </style>
  </defs>
  <path class="st2" d="M-182.3,254.2l87,54L-7.3,275.2l87,6,87,32h87l88,5,87,6,87-38,87-32,88,21,87,22v-147H-182.3v104Z"/>
  <path class="st4" d="M-182.3,335.2l87,10,88,17,87,5,87-11,87,33,88-6,87-11,87-37,87-38,88,43h87v-45l-87-22-88-21-87,32-87,38-87-6-88-5h-87l-87-32-87-6-88,33-87-54v83Z"/>
  <path class="st0" d="M-182.3,378.2l87,21L-7.3,437.2l87,22,87-6,87,33,88-38,87-16,87-22,87-5,88,32,87-32v-67h-87l-88-43-87,38-87,37-87,11-88,6-87-33-87,11-87-5-88-17-87-10v45Z"/>
  <path class="st3" d="M-182.3,507.2l87,38L-7.3,497.2l87,21,87,60,87,21,88-86,87,27,87-38,87,27,88-11,87,33v-148l-87,32-88-32-87,5-87,22-87,16-88,38-87-33-87,6-87-22-88-38-87-21v131Z"/>
  <path class="st1" d="M-182.3,691.2h960v-142l-87-33-88,11-87-27-87,38-87-27-88,86-87-21-87-60-87-21-88,48-87-38v186Z"/>
</svg>